/vscmnt/brussel_pixiu_data/_data_brussel/112/vsc11236/PredSimResults/SUBJ10mtu3D/weighted-LRposFixed/expIG/worker_04.mot
version=1
nRows=11
nColumns=50
inDegrees=yes
endheader
                time	         pelvis_tilt	         pelvis_list	     pelvis_rotation	           pelvis_tx	           pelvis_ty	           pelvis_tz	       hip_flexion_r	     hip_adduction_r	      hip_rotation_r	        knee_angle_r	       ankle_angle_r	         mtp_angle_r	       hip_flexion_l	     hip_adduction_l	      hip_rotation_l	        knee_angle_l	       ankle_angle_l	         mtp_angle_l	    lumbar_extension	      lumbar_bending	     lumbar_rotation	 ercspn_r/activation	 intobl_r/activation	 extobl_r/activation	    abd_r/activation	    add_r/activation	hamstrings_r/activation	bifemsh_r/activation	glut_max_r/activation	iliopsoas_r/activation	rect_fem_r/activation	  vasti_r/activation	gastroc_r/activation	 soleus_r/activation	tib_ant_r/activation	 ercspn_l/activation	 intobl_l/activation	 extobl_l/activation	    abd_l/activation	    add_l/activation	hamstrings_l/activation	bifemsh_l/activation	glut_max_l/activation	iliopsoas_l/activation	rect_fem_l/activation	  vasti_l/activation	gastroc_l/activation	 soleus_l/activation	tib_ant_l/activation	
          1.20370732	         -4.85243408	         -3.14327800	         10.63188292	          1.23981854	          0.82960059	         -0.01619726	         28.10808056	         -0.78594465	         -8.23940029	         -3.80944147	          6.66529146	          0.24981751	        -11.55070598	         -3.18629063	          6.59295761	         -8.12044968	         10.58171906	         23.79005606	         -6.26844305	          1.04178030	         -3.70919856	          0.08531919	          0.16500739	          0.02077872	          0.01200618	          0.13023373	          0.02301563	          0.08119963	          0.01000000	          0.06609883	          0.01454029	          0.01200617	          0.00999999	          0.00999999	          0.26514972	          0.03363535	          0.00999999	          0.00999999	          0.04317557	          0.03824700	          0.02559476	          0.12034625	          0.03596113	          0.30953822	          0.00999999	          0.00999999	          0.25706725	          0.24525724	          0.01554873	
          1.21574440	         -4.92462096	         -2.93278069	         10.45214201	          1.25478595	          0.82788197	         -0.01565836	         28.15556436	         -0.61723038	         -7.21083250	         -5.40081282	          6.38966177	          0.24432560	        -11.65072578	         -2.96937440	          5.89865477	         -9.85443642	         10.16322080	         25.41443573	         -6.04283757	          1.41143532	         -3.88050393	          0.07106274	          0.14241311	          0.01730669	          0.01000000	          0.18521855	          0.02509877	          0.07728167	          0.05190432	          0.05505401	          0.01211067	          0.00999999	          0.01865321	          0.01730674	          0.26944527	          0.07458399	          0.00999999	          0.00999999	          0.03596112	          0.08488947	          0.02131800	          0.10023693	          0.02995219	          0.32187829	          0.00999999	          0.00999999	          0.21690142	          0.23420841	          0.01295060	
          1.22778147	         -4.98079703	         -2.72933985	         10.21010447	          1.27007128	          0.82631164	         -0.01506766	         28.01776937	         -0.45341618	         -6.17162738	         -6.87614932	          6.09010664	          0.23861776	        -11.60186963	         -2.74647100	          5.15365397	        -11.92612848	          9.63355245	         27.02379308	         -5.79790922	          1.80904690	         -4.03243959	          0.06977333	          0.11861652	          0.01441482	          0.04930524	          0.16371039	          0.04003171	          0.07948850	          0.06089328	          0.04585473	          0.01008703	          0.00999999	          0.01553634	          0.01441486	          0.30069040	          0.08986308	          0.00999999	          0.00999999	          0.02995218	          0.07823932	          0.01775588	          0.08348779	          0.02494731	          0.31163855	          0.00999999	          0.00999999	          0.18065816	          0.21911971	          0.01078662	
          1.23981854	         -5.02258852	         -2.53028120	          9.90685905	          1.28547365	          0.82504490	         -0.01437511	         27.73534019	         -0.26837844	         -5.20924953	         -8.11286942	          5.71888711	          0.22756866	        -11.34155620	         -2.52035420	          4.36268256	        -14.40082887	          8.93743466	         28.56275550	         -5.55379535	          2.22116411	         -4.16202123	          0.07773032	          0.09879623	          0.01200617	          0.08914428	          0.16782956	          0.04029136	          0.06620633	          0.07784570	          0.03819261	          0.00999999	          0.00999999	          0.01294029	          0.01200620	          0.31751514	          0.11302109	          0.00999999	          0.00999999	          0.02494731	          0.08471935	          0.01858930	          0.06953735	          0.02077873	          0.29827293	          0.00999999	          0.00999999	          0.15047099	          0.19048991	          0.00999999	
          1.25185562	         -5.05025046	         -2.34013182	          9.54749262	          1.30080490	          0.82420466	         -0.01358861	         27.39017691	         -0.05995622	         -4.34863808	         -9.25483379	          5.37839867	          0.21880635	        -10.83052047	         -2.30032125	          3.51541349	        -17.30504516	          8.05528476	         29.88858852	         -5.32583065	          2.65102798	         -4.26642982	          0.07049293	          0.08228782	          0.00999999	          0.11034513	          0.16521089	          0.04200845	          0.05514355	          0.07774287	          0.03181080	          0.00999999	          0.03601542	          0.01077802	          0.01000002	          0.33572505	          0.13139444	          0.00999999	          0.00999999	          0.02077872	          0.09685847	          0.02211787	          0.05791797	          0.01730669	          0.27487965	          0.00999999	          0.00999999	          0.12532796	          0.15865990	          0.00999999	
          1.26389269	         -5.06473807	         -2.15980546	          9.13518900	          1.31593703	          0.82386765	         -0.01272347	         27.00229156	          0.16473701	         -3.58213505	        -10.32091120	          5.10257031	          0.20840600	        -10.05429903	         -2.09695484	          2.59231737	        -20.62641031	          7.00183779	         30.76965708	         -5.12414282	          3.09687017	         -4.34531248	          0.05871388	          0.06853789	          0.00999999	          0.12027106	          0.13760490	          0.04555718	          0.04592931	          0.06475239	          0.02649535	          0.00999999	          0.09705779	          0.00999999	          0.00999999	          0.34545005	          0.14240776	          0.00999999	          0.00999999	          0.01730669	          0.11143775	          0.02808237	          0.04824014	          0.01441482	          0.24169193	          0.00999999	          0.00999999	          0.10438622	          0.13214854	          0.00999999	
          1.27592976	         -5.06850421	         -1.98164670	          8.67016777	          1.33077914	          0.82412656	         -0.01180598	         26.53837162	          0.39254922	         -2.89778203	        -11.24654201	          4.94655135	          0.19716625	         -9.01839983	         -1.91628744	          1.58017107	        -24.30940488	          5.75047542	         31.01555308	         -4.95738764	          3.54892191	         -4.39740313	          0.04890305	          0.05708552	          0.00999999	          0.12264085	          0.11461174	          0.04559150	          0.03825473	          0.05579450	          0.02206810	          0.00999999	          0.14607114	          0.00999999	          0.00999999	          0.34550645	          0.14936849	          0.00999999	          0.00999999	          0.01441482	          0.12713271	          0.02372818	          0.04017943	          0.01200617	          0.20352365	          0.00999999	          0.00999999	          0.08694374	          0.11006711	          0.00999999	
          1.28796684	         -5.06367166	         -1.79309484	          8.15012404	          1.34530226	          0.82503575	         -0.01086158	         25.95397194	          0.60829643	         -2.28135686	        -11.95375520	          4.93404912	          0.18832037	         -7.75606927	         -1.76104833	          0.49289613	        -28.23726988	          4.17639407	         30.63388002	         -4.82840158	          3.99246143	         -4.41950819	          0.04073157	          0.04754678	          0.00999999	          0.11839208	          0.09546063	          0.04721360	          0.03186253	          0.05074214	          0.01838062	          0.00999999	          0.17035911	          0.00999999	          0.00999999	          0.33577006	          0.15368370	          0.00999999	          0.00999999	          0.01200617	          0.14132651	          0.02077874	          0.05057665	          0.00999999	          0.16951576	          0.00999999	          0.00999999	          0.07241583	          0.09167538	          0.00999999	
          1.30000391	         -5.05126508	         -1.57816057	          7.57330666	          1.35951091	          0.82655484	         -0.00990962	         25.23306235	          0.79223397	         -1.70604572	        -12.41476491	          5.04804653	          0.18342413	         -6.31624962	         -1.62553723	         -0.64124930	        -32.28385267	          2.30056349	         29.50123483	         -4.73706960	          4.40863701	         -4.40961609	          0.03392551	          0.03960193	          0.00999999	          0.12275841	          0.07950958	          0.04667779	          0.02653845	          0.04226335	          0.01530930	          0.00999999	          0.16675468	          0.00999999	          0.00999999	          0.31874294	          0.15410729	          0.00999999	          0.00999999	          0.00999999	          0.14500323	          0.01730671	          0.04212552	          0.00999999	          0.14119043	          0.00999999	          0.00999999	          0.06031547	          0.07635684	          0.04458341	
          1.31204098	         -5.03096190	         -1.32912230	          6.94488415	          1.37339731	          0.82853025	         -0.00896828	         24.40370411	          0.93137758	         -1.13587710	        -12.67516913	          5.24996188	          0.18469017	         -4.75404584	         -1.50387651	         -1.79566510	        -36.37702666	          0.49354266	         27.20800368	         -4.68369359	          4.78575999	         -4.36955994	          0.02825671	          0.03298462	          0.00999999	          0.13412729	          0.06622389	          0.04374199	          0.02210399	          0.04076863	          0.01275118	          0.00999999	          0.15437254	          0.00999999	          0.00999999	          0.29889957	          0.17512487	          0.04016565	          0.01000000	          0.00999999	          0.12077384	          0.01441484	          0.03508654	          0.00999999	          0.11759814	          0.00999999	          0.00999999	          0.05023702	          0.06359795	          0.14349201	
          1.32407806	         -5.00147834	         -1.04826806	          6.27698875	          1.38695893	          0.83075829	         -0.00803238	         23.50390071	          1.02330902	         -0.55353797	        -12.79561605	          5.49712648	          0.19344481	         -3.14644295	         -1.38602233	         -2.94786174	        -40.41387431	         -0.72647687	         23.77370646	         -4.66580983	          5.11180925	         -4.30073738	          0.02353514	          0.02747304	          0.00999999	          0.13098645	          0.05515817	          0.04210749	          0.01841052	          0.04120118	          0.01062052	          0.00999999	          0.14268087	          0.00999999	          0.00999999	          0.27843773	          0.18840121	          0.05834727	          0.02124345	          0.00999999	          0.10059307	          0.01200619	          0.07646887	          0.00999999	          0.11028810	          0.00999999	          0.00999999	          0.04184265	          0.05297102	          0.18511046	
